<?xml version="1.0" encoding="utf-8"?>
<svg version="1.1" id="Icons" x="0px" y="0px" viewBox="0 0 32 32" style="enable-background:new 0 0 32 32;" xmlns="http://www.w3.org/2000/svg">
  <g transform="matrix(1.142857, 0, 0, 1.142857, -2.285711, -1.771426)">
    <path d="M 16 4 C 8.3 4 2 10.3 2 18 C 2 21.2 3 24.2 5 26.7 C 5.3 27 5.8 27.2 6.2 27 C 8.7 26 11.2 25.3 13.9 25.1 L 19.1 15.5 C 19.4 15 20 14.8 20.5 15.1 C 21 15.4 21.2 16 20.9 16.5 L 16.2 25 C 19.5 25 22.7 25.7 25.8 27 C 25.9 27.1 26.1 27.1 26.2 27.1 C 26.5 27.1 26.8 27 27 26.7 C 29 24.2 30 21.2 30 18 C 30 10.3 23.7 4 16 4 Z M 8 19 L 6 19 C 5.4 19 5 18.6 5 18 C 5 17.4 5.4 17 6 17 L 8 17 C 8.6 17 9 17.4 9 18 C 9 18.6 8.6 19 8 19 Z M 11 13 C 10.8 13.2 10.5 13.3 10.3 13.3 C 10.1 13.3 9.8 13.2 9.6 13 L 8.2 11.6 C 7.8 11.2 7.8 10.6 8.2 10.2 C 8.6 9.8 9.2 9.8 9.6 10.2 L 11 11.6 C 11.4 12 11.4 12.7 11 13 Z M 17 10 C 17 10.6 16.6 11 16 11 C 15.4 11 15 10.6 15 10 L 15 8 C 15 7.4 15.4 7 16 7 C 16.6 7 17 7.4 17 8 L 17 10 Z M 21.7 13.3 C 21.4 13.3 21.2 13.2 21 13 C 20.6 12.6 20.6 12 21 11.6 L 22.4 10.2 C 22.8 9.8 23.4 9.8 23.8 10.2 C 24.2 10.6 24.2 11.2 23.8 11.6 L 22.4 13 C 22.2 13.2 21.9 13.3 21.7 13.3 Z M 26 19 L 24 19 C 23.4 19 23 18.6 23 18 C 23 17.4 23.4 17 24 17 L 26 17 C 26.6 17 27 17.4 27 18 C 27 18.6 26.6 19 26 19 Z" style="fill: rgb(255, 255, 255);"/>
  </g>
</svg>