<?xml version="1.0" encoding="utf-8"?>
<svg version="1.1" id="Icons" x="0px" y="0px" viewBox="0 0 32 32" style="enable-background:new 0 0 32 32;" xmlns="http://www.w3.org/2000/svg">
  <style type="text/css">
	.st0{fill:none;stroke:#000000;stroke-width:2;stroke-linecap:round;stroke-linejoin:round;stroke-miterlimit:10;}
</style>
  <g transform="matrix(1.142857, 0, 0, 1.142857, -2.285711, -3.785711)">
    <path d="M 27 4 L 5 4 C 3.3 4 2 5.3 2 7 L 2 25 C 2 26.7 3.3 28 5 28 L 7.5 28 C 7.5 27.6 7.5 27.2 7.7 26.8 C 6.6 26.6 5.6 25.7 5.3 24.6 C 5.1 23.7 5 22.8 5 22 C 5 21.2 5.1 20.3 5.3 19.4 C 5.6 18.2 6.5 17.4 7.7 17.2 C 7.3 16.1 7.6 14.9 8.5 14 C 9.8 12.8 11.3 11.9 12.9 11.4 C 14.1 11.1 15.3 11.4 16 12.3 C 16.8 11.4 18 11 19.1 11.4 C 20.8 11.9 22.3 12.8 23.5 14 C 24.4 14.8 24.6 16.1 24.3 17.2 C 25.4 17.4 26.4 18.3 26.7 19.4 C 26.9 20.3 27 21.1 27 22 C 27 22.9 26.9 23.7 26.7 24.6 C 26.4 25.8 25.5 26.6 24.3 26.8 C 24.4 27.2 24.5 27.6 24.5 28 L 27 28 C 28.7 28 30 26.7 30 25 L 30 7 C 30 5.3 28.7 4 27 4 Z M 7.9 8.4 C 7.9 8.5 7.8 8.6 7.7 8.7 C 7.5 8.9 7.3 9 7 9 C 6.7 9 6.5 8.9 6.3 8.7 C 6.1 8.5 6 8.3 6 8 C 6 7.7 6.1 7.5 6.3 7.3 C 6.3 7.3 6.4 7.2 6.4 7.2 C 6.5 7.2 6.5 7.1 6.6 7.1 C 6.7 7 6.7 7 6.8 7 C 6.9 7 7.1 7 7.2 7 C 7.3 7 7.3 7 7.4 7.1 C 7.5 7.1 7.5 7.2 7.6 7.2 C 7.6 7.2 7.7 7.3 7.7 7.3 C 7.8 7.4 7.9 7.5 7.9 7.6 C 8 7.7 8 7.9 8 8 C 8 8.1 8 8.3 7.9 8.4 Z M 10.7 8.7 C 10.5 8.9 10.3 9 10 9 C 9.7 9 9.5 8.9 9.3 8.7 C 9.1 8.5 9 8.3 9 8 C 9 7.9 9 7.7 9.1 7.6 C 9.2 7.5 9.2 7.4 9.3 7.3 C 9.4 7.2 9.5 7.1 9.6 7.1 C 10 6.9 10.4 7 10.7 7.3 C 10.8 7.4 10.9 7.5 10.9 7.6 C 11 7.7 11 7.9 11 8 C 11 8.3 10.9 8.5 10.7 8.7 Z M 13.9 8.4 C 13.8 8.5 13.8 8.6 13.7 8.7 C 13.5 8.9 13.3 9 13 9 C 12.9 9 12.7 9 12.6 8.9 C 12.5 8.8 12.4 8.8 12.3 8.7 C 12.2 8.6 12.1 8.5 12.1 8.4 C 12 8.3 12 8.1 12 8 C 12 7.9 12 7.7 12.1 7.6 C 12.2 7.5 12.2 7.4 12.3 7.3 C 12.7 6.9 13.3 6.9 13.7 7.3 C 13.8 7.4 13.9 7.5 13.9 7.6 C 14 7.7 14 7.9 14 8 C 14 8.1 14 8.3 13.9 8.4 Z" style="fill: rgb(255, 255, 255);"/>
    <path d="M 24.7 19.9 C 24.6 19.4 24.1 19.1 23.6 19.1 C 23 19.2 22.4 18.9 22.1 18.4 C 21.8 17.9 21.8 17.3 22.2 16.8 C 22.5 16.4 22.5 15.8 22.1 15.5 C 21.1 14.5 19.8 13.8 18.5 13.4 C 18 13.3 17.5 13.5 17.3 14 C 17.1 14.5 16.5 14.9 16 14.9 C 15.5 14.9 14.9 14.5 14.7 14 C 14.5 13.5 14 13.3 13.5 13.4 C 12.2 13.8 10.9 14.5 9.9 15.5 C 9.5 15.9 9.5 16.4 9.8 16.8 C 10.2 17.3 10.2 17.9 9.9 18.4 C 9.6 18.9 9 19.2 8.4 19.1 C 7.9 19 7.4 19.4 7.3 19.9 C 7.1 20.6 7 21.3 7 22 C 7 22.7 7.1 23.4 7.3 24.1 C 7.4 24.6 7.9 24.9 8.4 24.9 C 9 24.8 9.6 25.1 9.9 25.6 C 10.2 26.1 10.2 26.7 9.8 27.2 C 9.5 27.6 9.5 28.2 9.9 28.5 C 10.9 29.5 12.2 30.2 13.5 30.6 C 14 30.7 14.5 30.5 14.7 30 C 14.9 29.5 15.5 29.1 16 29.1 C 16.5 29.1 17.1 29.5 17.3 30 C 17.5 30.4 17.8 30.6 18.2 30.6 C 18.3 30.6 18.4 30.6 18.5 30.6 C 19.8 30.2 21.1 29.5 22.1 28.5 C 22.5 28.1 22.5 27.6 22.2 27.2 C 21.8 26.7 21.8 26.1 22.1 25.6 C 22.4 25.1 23 24.8 23.6 24.9 C 24.1 25 24.6 24.6 24.7 24.1 C 24.9 23.4 25 22.7 25 22 C 25 21.3 24.9 20.6 24.7 19.9 Z M 16 25 C 14.3 25 13 23.7 13 22 C 13 20.3 14.3 19 16 19 C 17.7 19 19 20.3 19 22 C 19 23.7 17.7 25 16 25 Z" style="fill: rgb(255, 255, 255);"/>
  </g>
</svg>