<?xml version="1.0" encoding="utf-8"?>
<svg version="1.1" id="Capa_1" x="0px" y="0px" viewBox="0 0 276.147 276.147" style="enable-background:new 0 0 276.147 276.147;" xmlns="http://www.w3.org/2000/svg">
  <g>
    <path style="fill: rgb(255, 255, 255);" d="M236.028,0H40.119L23.801,227.761v48.386h228.544v-48.386L236.028,0z M65.437,27.195h145.272 l12.417,173.37h-39.809c-0.43,14.392-12.162,25.95-26.662,25.95h-37.165c-14.501,0-26.238-11.558-26.662-25.95H53.015 L65.437,27.195z"/>
    <rect x="82.777" y="41.81" style="fill: rgb(255, 255, 255);" width="110.593" height="16.317"/>
    <rect x="78.725" y="72.97" style="fill: rgb(255, 255, 255);" width="118.702" height="16.317"/>
    <rect x="74.14" y="104.131" style="fill: rgb(255, 255, 255);" width="127.867" height="16.317"/>
    <rect x="67.847" y="135.297" style="fill: rgb(255, 255, 255);" width="140.458" height="16.317"/>
    <polygon style="fill: rgb(255, 255, 255);" points="208.305,182.774 208.305,166.457 67.847,166.457 67.847,182.774 99.002,182.774 &#10;&#9;&#9;&#9;177.15,182.774 &#9;&#9;"/>
  </g>
</svg>