<?xml version="1.0" encoding="utf-8"?>
<svg version="1.1" id="Icons" x="0px" y="0px" viewBox="0 0 32 32" style="enable-background:new 0 0 32 32;" xmlns="http://www.w3.org/2000/svg">
  <style type="text/css">
	.st0{fill:none;stroke:#000000;stroke-width:2;stroke-linecap:round;stroke-linejoin:round;stroke-miterlimit:10;}
</style>
  <g transform="matrix(1.142857, 0, 0, 1.142857, -1.857142, -2.285713)">
    <polygon points="20 2.6 20 8 25.4 8" style="fill: rgb(255, 255, 255);"/>
    <g>
      <circle cx="16" cy="19" r="3" style="fill: rgb(255, 255, 255);"/>
      <path d="M23.5,10H19c-0.6,0-1-0.4-1-1V2H7C6.4,2,6,2.4,6,3v26c0,0.6,0.4,1,1,1h18c0.6,0,1-0.4,1-1V12.5C26,11.1,24.9,10,23.5,10z M23.7,21.1c-0.1,0.5-0.7,0.8-1.2,0.7c-0.7-0.2-1.2,0-1.3,0.2c-0.1,0.2,0,0.7,0.5,1.3c0.4,0.4,0.4,1,0,1.4c-1,1-2.2,1.7-3.6,2.1 c-0.1,0-0.2,0-0.3,0c-0.4,0-0.8-0.3-1-0.7c-0.2-0.7-0.6-1-0.9-1s-0.6,0.4-0.9,1c-0.2,0.5-0.7,0.8-1.2,0.7c-1.4-0.4-2.6-1.1-3.6-2.1 c-0.4-0.4-0.4-1,0-1.4c0.5-0.5,0.6-1,0.5-1.3c-0.1-0.2-0.6-0.4-1.3-0.2c-0.5,0.1-1.1-0.2-1.2-0.7C8.1,20.4,8,19.7,8,19 s0.1-1.4,0.3-2.1c0.1-0.5,0.7-0.8,1.2-0.7c0.7,0.2,1.2,0,1.3-0.2c0.1-0.2,0-0.7-0.5-1.3c-0.4-0.4-0.4-1,0-1.4c1-1,2.2-1.7,3.6-2.1 c0.5-0.1,1.1,0.2,1.2,0.7c0.2,0.7,0.6,1,0.9,1s0.6-0.4,0.9-1c0.2-0.5,0.7-0.8,1.2-0.7c1.4,0.4,2.6,1.1,3.6,2.1c0.4,0.4,0.4,1,0,1.4 c-0.5,0.5-0.6,1-0.5,1.3c0.1,0.2,0.6,0.4,1.3,0.2c0.5-0.1,1.1,0.2,1.2,0.7c0.2,0.7,0.3,1.4,0.3,2.1S23.9,20.4,23.7,21.1z" style="fill: rgb(255, 255, 255);"/>
    </g>
  </g>
</svg>