<?xml version="1.0" encoding="utf-8"?>
<svg version="1.1" id="Icons" x="0px" y="0px" viewBox="0 0 32 32" style="enable-background:new 0 0 32 32;" xmlns="http://www.w3.org/2000/svg">
  <g transform="matrix(1.143878, 0, 0, 1.143878, -3.431628, -2.302048)">
    <path d="M 30.9 13.6 C 30.8 13.5 30.8 13.4 30.7 13.3 L 26.7 9.3 C 26.3 8.9 25.7 8.9 25.3 9.3 C 24.9 9.7 24.9 10.3 25.3 10.7 L 27.6 13 L 22 13 L 22 10 L 22 3 C 22 2.4 21.6 2 21 2 L 4 2 C 4 2 4 2 4 2 C 3.9 2 3.7 2 3.6 2.1 C 3.6 2.1 3.6 2.1 3.5 2.1 C 3.5 2.1 3.4 2.1 3.4 2.2 C 3.4 2.2 3.3 2.3 3.3 2.3 C 3.3 2.3 3.3 2.3 3.3 2.3 C 3.2 2.4 3.1 2.5 3.1 2.6 C 3.1 2.6 3.1 2.6 3.1 2.7 C 3 2.8 3 2.9 3 3 L 3 25 C 3 25.4 3.2 25.8 3.6 25.9 L 12.6 29.9 C 12.7 30 12.9 30 13 30 C 13.2 30 13.4 29.9 13.5 29.8 C 13.8 29.6 14 29.3 14 29 L 14 26 L 21 26 C 21.6 26 22 25.6 22 25 L 22 15 L 27.6 15 L 25.3 17.3 C 24.9 17.7 24.9 18.3 25.3 18.7 C 25.5 18.9 25.8 19 26 19 C 26.2 19 26.5 18.9 26.7 18.7 L 30.7 14.7 C 30.8 14.6 30.9 14.5 30.9 14.4 C 31 14.1 31 13.9 30.9 13.6 Z M 10 21 C 10 21.6 9.6 22 9 22 C 8.4 22 8 21.6 8 21 L 8 17 C 8 16.4 8.4 16 9 16 C 9.6 16 10 16.4 10 17 L 10 21 Z M 20 10 L 20 24 L 14 24 L 14 7 C 14 6.6 13.8 6.2 13.4 6.1 L 8.7 4 L 20 4 L 20 10 Z" style="fill: rgb(255, 255, 255);"/>
  </g>
</svg>