<?xml version="1.0" encoding="utf-8"?>
<svg version="1.1" id="Layer_1" x="0px" y="0px" viewBox="0 0 330 330" style="enable-background:new 0 0 330 330;" xmlns="http://www.w3.org/2000/svg">
  <path id="XMLID_487_" d="M 165 330 C 228.411 330 280 278.411 280 215 C 280 185.229 268.627 158.064 250 137.621 L 250 85 C 250 38.131 211.869 0 165 0 C 118.131 0 80.001 38.131 80.001 85 L 80.001 137.619 C 61.373 158.064 50 185.229 50 215 C 50 278.411 101.589 330 165 330 Z M 180 219.986 L 180 240 C 180 248.284 173.284 255 165 255 C 156.716 255 150 248.284 150 240 L 150 219.986 C 143.932 215.421 140 208.162 140 200 C 140 186.215 151.215 175 165 175 C 178.785 175 190 186.215 190 200 C 190 208.162 186.068 215.421 180 219.986 Z M 110.001 85 C 110.001 54.673 134.674 30 165 30 C 195.327 30 220 54.673 220 85 L 220 114.029 C 203.652 105.088 184.91 100 165 100 C 145.091 100 126.349 105.088 110.001 114.028 L 110.001 85 Z" style="fill: rgb(255, 255, 255);"/>
</svg>