<?xml version="1.0" encoding="iso-8859-1"?>
<svg version="1.1" id="Layer_1" xmlns="http://www.w3.org/2000/svg" xmlns:xlink="http://www.w3.org/1999/xlink" x="0px" y="0px"
	 viewBox="0 0 512 512" style="enable-background:new 0 0 512 512;" xml:space="preserve">
<circle style="fill:#F2CF61;" cx="256" cy="256" r="256"/>
<path style="fill:#F5F5F5;" d="M251.812,198.856V96h-80v102.856c-46.6,16.476-80,60.912-80,113.144c0,66.268,53.728,120,120,120
	s120-53.732,120-120C331.812,259.756,298.416,215.332,251.812,198.856z"/>
<g>
	<circle style="fill:#96E652;" cx="220" cy="264" r="8"/>
	<circle style="fill:#96E652;" cx="200" cy="224" r="8"/>
	<circle style="fill:#96E652;" cx="220" cy="212" r="8"/>
	<circle style="fill:#96E652;" cx="200" cy="188" r="12"/>
</g>
<path style="fill:#F5F5F5;" d="M267.812,84c0,4.416-3.584,8-8,8h-96c-4.416,0-8-3.584-8-8l0,0c0-4.416,3.584-8,8-8h96
	C264.228,76,267.812,79.584,267.812,84L267.812,84z"/>
<rect x="171.812" y="92" style="fill:#CCCCCC;" width="80" height="4"/>
<path style="fill:#96E652;" d="M106.008,275.268c-3.996,11.508-6.196,23.86-6.196,36.732c0,61.856,50.144,112,112,112
	s112-50.144,112-112c0-0.504-0.032-1-0.04-1.504C256.84,316.36,171.488,272.868,106.008,275.268z"/>
<g>
	<path style="fill:#E6E6E6;" d="M383.812,477.772c5.452-3.148,10.804-6.448,16-9.98V44.208c-5.196-3.532-10.548-6.832-16-9.98
		V477.772z"/>
	<path style="fill:#E6E6E6;" d="M411.812,136c0,8.8-7.204,16-16,16h-8c-8.8,0-16-7.2-16-16v-8c0-8.8,7.2-16,16-16h8
		c8.796,0,16,7.2,16,16V136z"/>
</g>
<path style="fill:#CCCCCC;" d="M395.812,112h-8c8.796,0,16,7.2,16,16v8c0,8.8-7.204,16-16,16h8c8.796,0,16-7.2,16-16v-8
	C411.812,119.2,404.608,112,395.812,112z"/>
<g>
	<rect x="259.812" y="128" style="fill:#E6E6E6;" width="112" height="8"/>
	<path style="fill:#E6E6E6;" d="M259.812,140c0,4.4-3.6,8-8,8h-80c-4.4,0-8-3.6-8-8v-16c0-4.4,3.6-8,8-8h80c4.4,0,8,3.6,8,8V140z"/>
</g>
<path style="fill:#CCCCCC;" d="M251.812,116h-12c4.4,0,8,3.6,8,8v16c0,4.4-3.6,8-8,8h12c4.4,0,8-3.6,8-8v-16
	C259.812,119.6,256.212,116,251.812,116z"/>
</svg>
