<?xml version="1.0" encoding="utf-8"?>
<svg version="1.1" id="Capa_1" x="0px" y="0px" width="46.999px" height="46.999px" viewBox="0 0 46.999 46.999" style="enable-background:new 0 0 46.999 46.999;" xmlns="http://www.w3.org/2000/svg">
  <g transform="matrix(1.26308, 0, 0, 1.26308, -6.181137, -7.238884)">
    <path d="M 41.633 17.917 L 37.007 35.183 L 36.698 36.334 C 36.356 37.605 35.05 38.36 33.779 38.019 C 32.751 37.744 32.072 36.834 32.026 35.824 L 6.966 22.22 C 6.675 22.492 6.268 22.629 5.856 22.52 C 5.221 22.349 4.843 21.696 5.014 21.059 L 5.476 19.332 L 6.401 15.88 L 6.863 14.152 C 7.033 13.514 7.687 13.136 8.323 13.31 C 8.736 13.418 9.02 13.742 9.136 14.122 L 11.037 14.173 C 11.564 11.181 14.176 8.898 17.317 8.898 C 17.887 8.898 18.445 8.972 18.981 9.115 C 20.049 9.402 21.028 9.966 21.831 10.767 C 22.851 11.788 23.454 13.096 23.625 14.504 L 37.641 14.871 C 38.186 14.018 39.229 13.569 40.258 13.845 C 41.529 14.187 42.283 15.491 41.944 16.766 L 41.633 17.917 Z M 20.145 12.453 C 19.39 11.695 18.388 11.281 17.316 11.281 C 15.474 11.281 13.936 12.541 13.472 14.236 L 21.222 14.441 C 21.064 13.693 20.698 13.006 20.145 12.453 Z M 10.911 18.94 L 33.185 31.03 L 36.247 19.606 L 10.911 18.94 Z" transform="matrix(-1, 0, 0, -1, 46.998028, 46.998903)" style="paint-order: fill; fill: rgb(255, 255, 255);"/>
  </g>
</svg>