<?xml version="1.0" encoding="utf-8"?>
<svg version="1.1" id="Capa_1" x="0px" y="0px" viewBox="0 0 489.7 489.7" style="enable-background:new 0 0 489.7 489.7;" xmlns="http://www.w3.org/2000/svg">
  <path d="M 438.9 489.7 L 50.7 489.7 C 22.7 489.7 0 465.943 0 436.639 L 0 146.32 C 0 117.016 22.7 93.259 50.7 93.259 L 62 93.259 L 62 7.754 C 62 0.846 70 -2.607 74.7 2.312 L 161.6 93.259 L 439 93.259 C 467 93.259 489.7 117.016 489.7 146.32 L 489.7 436.639 C 489.7 465.943 467 489.7 438.9 489.7 Z M 156.8 263.745 C 142.2 263.745 130.4 276.095 130.4 291.375 C 130.4 306.655 142.2 319.004 156.8 319.004 C 171.4 319.004 183.2 306.655 183.2 291.375 C 183.2 276.199 171.4 263.745 156.8 263.745 Z M 244.8 263.745 C 230.2 263.745 218.4 276.095 218.4 291.375 C 218.4 306.655 230.2 319.004 244.8 319.004 C 259.4 319.004 271.2 306.655 271.2 291.375 C 271.2 276.199 259.4 263.745 244.8 263.745 Z M 332.8 263.745 C 318.2 263.745 306.4 276.095 306.4 291.375 C 306.4 306.655 318.2 319.004 332.8 319.004 C 347.4 319.004 359.2 306.655 359.2 291.375 C 359.2 276.199 347.4 263.745 332.8 263.745 Z" style="fill: rgb(255, 255, 255);" transform="matrix(-1, 0, 0, -1, 489.700012, 489.700072)"/>
</svg>