<?xml version="1.0" encoding="utf-8"?>
<svg version="1.1" id="Layer_1" x="0px" y="0px" viewBox="0 0 512 512" style="enable-background:new 0 0 512 512;" xmlns="http://www.w3.org/2000/svg">
  <g>
    <rect x="267.91" y="50.009" width="59.537" height="70.255" style="fill: rgb(255, 255, 255);"/>
    <path d="M 113.142 309.607 L 113.142 512 L 398.857 512 L 398.857 309.607 L 113.142 309.607 Z M 336.536 463.458 L 175.464 463.458 L 175.464 430.067 L 336.537 430.067 L 336.537 463.458 L 336.536 463.458 Z M 336.536 390.428 L 175.464 390.428 L 175.464 357.037 L 336.537 357.037 L 336.537 390.428 L 336.536 390.428 Z" style="fill: rgb(255, 255, 255);"/>
    <polygon points="444.13 0 381.024 0 381.024 170.27 130.976 170.27 130.976 0 0 0 0 512 79.751 512 79.751 276.216 432.249 276.216 432.249 512 512 512 512 67.87" style="fill: rgb(255, 255, 255);"/>
  </g>
</svg>