<?xml version="1.0" encoding="utf-8"?>
<svg version="1.1" id="Layer_1" x="0px" y="0px" viewBox="0 0 512 512" style="enable-background:new 0 0 512 512;" xmlns="http://www.w3.org/2000/svg">
  <g>
    <path d="M 330.418 58.661 L 330.418 50.156 C 330.418 22.497 307.921 0 280.263 0 L 231.738 0 C 204.08 0 181.583 22.497 181.583 50.155 L 181.583 58.66 L 68.681 58.66 L 68.681 138.271 L 84.354 138.271 L 91.647 138.271 L 420.351 138.271 L 427.644 138.271 L 443.317 138.271 L 443.317 58.661 L 330.418 58.661 Z M 299.071 58.661 L 212.93 58.661 L 212.93 50.156 C 212.93 39.78 221.362 31.348 231.738 31.348 L 280.263 31.348 C 290.639 31.348 299.071 39.78 299.071 50.156 L 299.071 58.661 L 299.071 58.661 Z" style="fill: rgb(255, 255, 255);"/>
    <path d="M400.802,169.618h-15.788H126.986h-15.788H95.42L136.558,512h238.885l41.138-342.382H400.802z M184.184,472.012 L170.412,212.25l31.295-1.661l13.782,259.762L184.184,472.012z M271.673,471.176h-31.347V211.414h31.347V471.176z M327.816,472.012l-31.305-1.661l13.782-259.762l31.295,1.661L327.816,472.012z" style="fill: rgb(255, 255, 255);"/>
  </g>
</svg>