<?xml version="1.0" encoding="utf-8"?>
<svg viewBox="0 0 500 500" xmlns="http://www.w3.org/2000/svg">
  <g transform="matrix(1, 0, 0, 1, 56.999992, 0.000504)">
    <path d="M 250 174.345 C 229.147 174.345 209.156 178.251 190.832 185.432 C 169.003 193.934 149.471 207.031 133.387 223.575 C 104.779 252.929 87.201 292.968 87.201 337.201 C 87.201 427.102 160.099 499.999 250 499.999 C 339.901 499.999 412.799 427.102 412.799 337.201 C 412.799 247.3 339.901 174.345 250 174.345 Z M 267.176 352.941 L 279.641 412.051 C 280.389 415.613 277.688 419.003 274.011 419.003 L 250 419.003 L 225.988 419.003 C 222.311 419.003 219.611 415.671 220.358 412.051 L 232.823 352.941 C 233.8 348.287 231.847 343.462 227.826 340.935 C 215.705 333.352 207.72 319.738 208.122 304.285 C 208.696 282.054 226.791 263.959 249.023 263.442 C 272.633 262.867 291.991 281.882 291.991 305.376 C 291.991 320.37 284.122 333.524 272.287 340.934 C 268.209 343.405 266.199 348.23 267.176 352.941 Z" style="fill: rgb(255, 255, 255);"/>
    <path d="M 78.68 233.451 L 76.9 233.451 C 13.021 233.451 -38.794 181.636 -38.794 117.7 L -38.781 6.451 C -39.365 6.408 18.711 6.535 18.619 5.334 L 18.651 117.757 C 18.651 149.926 44.73 176.064 76.957 176.064 L 78.738 176.064 C 110.907 176.064 137.044 149.984 137.044 117.757 C 137.044 104.2 148.016 93.228 161.573 93.228 L 169.961 93.228 C 183.518 93.228 194.489 104.2 194.489 117.757 C 194.432 181.636 142.616 233.451 78.68 233.451 Z" style="fill: rgb(255, 255, 255);" transform="matrix(-1, 0, 0, -1, 155.694992, 238.785005)"/>
  </g>
</svg>