<?xml version="1.0" encoding="utf-8"?>
<svg version="1.1" id="Layer_1" x="0px" y="0px" viewBox="0 0 511.999 511.999" style="enable-background:new 0 0 511.999 511.999;" xmlns="http://www.w3.org/2000/svg">
  <g>
    <path style="fill: rgb(255, 255, 255);" d="M18.757,501.431c0-131.026,106.217-237.243,237.243-237.243s237.243,106.217,237.243,237.243H18.757 z"/>
    <circle style="fill: rgb(255, 255, 255);" cx="255.999" cy="137.378" r="126.811"/>
    <path d="M 431.227 326.204 C 398.928 293.905 359.282 271.626 316.059 260.914 C 361.795 238.589 393.378 191.604 393.378 137.379 C 393.378 61.628 331.75 0 255.999 0 C 180.248 0 118.621 61.628 118.621 137.379 C 118.621 191.606 150.204 238.589 195.94 260.914 C 152.716 271.625 113.071 293.905 80.772 326.204 C 33.966 373.009 8.189 435.239 8.189 501.431 C 8.189 507.267 12.92 511.999 18.757 511.999 L 493.242 511.999 C 499.078 511.999 503.81 507.268 503.81 501.431 C 503.81 435.239 478.033 373.009 431.227 326.204 Z M 139.756 137.378 C 139.756 73.281 191.903 21.134 256 21.134 C 320.097 21.134 372.244 73.281 372.244 137.378 C 372.244 201.475 320.097 253.622 256 253.622 C 191.903 253.622 139.756 201.474 139.756 137.378 Z M 29.568 490.864 C 35.103 370.758 134.551 274.757 256 274.757 C 377.449 274.757 476.897 370.758 482.432 490.864 L 29.568 490.864 L 29.568 490.864 Z" style="paint-order: stroke; fill-rule: nonzero; fill: rgb(255, 255, 255);"/>
  </g>
</svg>