<?xml version="1.0" encoding="utf-8"?>
<svg width="32px" height="32px" viewBox="0 0 32 32" xmlns="http://www.w3.org/2000/svg">
  <path d="M 30.118 20.825 L 25.329 18.313 L 23.677 13.61 L 21.49 7.372 C 21.49 7.354 21.467 7.307 21.447 7.261 L 19.889 2.814 C 18.605 -0.179 14.564 -0.66 12.615 1.946 C 12.395 2.238 12.216 2.558 12.079 2.897 L 10.539 7.289 L 10.539 7.295 C 10.526 7.326 10.513 7.357 10.511 7.368 L 7.966 14.626 L 7.966 14.639 L 6.682 18.308 L 1.882 20.825 C 0.122 21.75 0.021 24.234 1.703 25.297 C 1.76 25.334 1.821 25.369 1.882 25.402 L 11.762 30.569 C 14.42 31.949 17.582 31.949 20.242 30.569 L 30.116 25.402 C 31.878 24.478 31.979 21.993 30.297 20.928 C 30.237 20.892 30.178 20.857 30.116 20.825 Z M 14.485 3.83 C 14.741 3.222 15.339 2.827 15.999 2.837 C 16.631 2.819 17.212 3.178 17.48 3.751 L 18.584 6.916 C 16.874 7.258 15.114 7.258 13.405 6.916 Z M 12.547 9.364 C 13.681 9.625 14.84 9.754 16.003 9.752 C 17.165 9.754 18.323 9.625 19.457 9.364 L 20.232 11.562 L 21.271 14.533 C 19.642 15.366 17.83 15.784 15.999 15.748 C 14.171 15.782 12.364 15.364 10.737 14.53 Z M 8.917 19.703 L 8.917 19.694 C 8.941 19.649 8.96 19.602 8.976 19.554 L 9.874 16.992 C 11.785 17.902 13.882 18.36 15.999 18.332 C 18.119 18.361 20.216 17.904 22.129 16.992 L 23.063 19.648 L 23.086 19.706 C 23.128 19.829 23.161 19.954 23.186 20.082 C 23.213 20.173 23.238 20.266 23.256 20.359 C 23.271 20.508 23.274 20.656 23.265 20.804 C 23.265 20.878 23.275 20.951 23.265 21.024 C 23.244 21.206 23.207 21.385 23.15 21.56 C 23.14 21.595 23.138 21.631 23.127 21.665 C 23.057 21.869 22.961 22.062 22.841 22.241 C 22.617 22.618 22.222 22.861 21.784 22.893 L 10.213 22.893 C 9.773 22.861 9.38 22.618 9.154 22.241 C 8.67 21.483 8.58 20.539 8.914 19.703 Z M 28.92 23.11 L 28.92 23.11 L 19.05 28.279 C 17.141 29.268 14.869 29.268 12.959 28.279 L 3.077 23.114 L 6.178 21.487 C 6.178 21.517 6.197 21.544 6.201 21.572 C 6.252 21.925 6.339 22.272 6.458 22.607 C 6.469 22.635 6.485 22.663 6.497 22.693 C 6.632 23.043 6.805 23.377 7.013 23.689 C 7.711 24.783 8.912 25.453 10.207 25.474 L 21.782 25.474 C 23.08 25.455 24.28 24.787 24.98 23.692 C 25.187 23.383 25.358 23.052 25.49 22.706 C 25.505 22.67 25.521 22.638 25.536 22.601 C 25.652 22.278 25.735 21.944 25.786 21.605 C 25.793 21.563 25.813 21.523 25.817 21.476 L 28.92 23.104 Z" style="fill: rgb(255, 255, 255);"/>
</svg>