<?xml version="1.0" encoding="utf-8"?>
<svg version="1.1" id="Layer_1" x="0px" y="0px" width="100px" height="100px" viewBox="0 0 100 100" enable-background="new 0 0 100 100" xmlns="http://www.w3.org/2000/svg">
  <path d="M 99.174 76.571 L 72.6 49.998 L 99.166 23.427 C 100.267 22.326 100.267 20.542 99.166 19.441 L 80.555 0.826 C 79.454 -0.275 77.669 -0.275 76.568 0.826 L 49.998 27.396 L 23.432 0.826 C 22.375 -0.233 20.503 -0.233 19.445 0.826 L 0.83 19.439 C 0.302 19.967 0.004 20.686 0.004 21.432 C 0.004 22.179 0.302 22.897 0.83 23.426 L 27.401 49.998 L 0.826 76.572 C 0.298 77.102 0 77.819 0 78.566 C 0 79.314 0.298 80.033 0.826 80.56 L 19.438 99.174 C 19.966 99.702 20.686 100 21.436 100 C 22.179 100 22.896 99.702 23.425 99.174 L 49.998 72.599 L 76.572 99.173 C 77.124 99.722 77.842 99.999 78.566 99.999 C 79.29 99.999 80.01 99.722 80.561 99.173 L 99.176 80.558 C 100.275 79.457 100.275 77.673 99.174 76.571 Z" style="fill: rgb(255, 255, 255);"/>
</svg>